<svg width="22" height="28" viewBox="0 0 22 28" fill="none" xmlns="http://www.w3.org/2000/svg">
<path d="M8.35985 11.4302L8.35994 11.4302C8.79721 10.7103 9.54254 9.90626 10.2714 9.21261C11.445 8.09449 11.88 6.32783 11.1151 4.8316L9.65391 1.9741C9.6539 1.97409 9.6539 1.97408 9.6539 1.97407C9.08974 0.871214 7.90823 0.0401057 6.51676 0.226273L8.35985 11.4302ZM8.35985 11.4302L8.35671 11.4357M8.35985 11.4302L8.35671 11.4357M8.35671 11.4357C8.30517 11.527 8.28851 11.6338 8.31017 11.7365C8.71229 13.8633 10.1782 15.9442 11.4648 17.4189L11.4648 17.4189M8.35671 11.4357L11.4648 17.4189M11.4648 17.4189L11.4684 17.4229M11.4648 17.4189L11.4684 17.4229M11.4684 17.4229C11.5595 17.5218 11.6778 17.5918 11.8084 17.6248C11.9379 17.6575 12.0743 17.6525 12.201 17.6104L15.0781 16.7312L15.0781 16.7312M11.4684 17.4229L15.0781 16.7312M15.0781 16.7312C15.8138 16.5063 16.604 16.5178 17.3324 16.764C18.0609 17.0102 18.6887 17.4778 19.1244 18.0975L21.2086 21.0619L15.0781 16.7312ZM21.6054 23.8161L21.6054 23.8161C22.0057 22.8465 21.7459 21.8274 21.2086 21.0621L21.6054 23.8161ZM21.6054 23.8161C21.2257 24.7362 20.4973 26.0462 19.1837 26.914C17.8293 27.8079 15.9599 28.1612 13.4779 27.3291C10.7044 26.3983 8.06251 24.0542 5.8586 21.0263C3.64443 17.9831 1.81944 14.1782 0.712697 10.2092L0.712691 10.2092M21.6054 23.8161L0.712691 10.2092M0.712691 10.2092C-0.326239 6.485 0.311564 4.02718 1.74486 2.46013L1.74488 2.46011M0.712691 10.2092L1.74488 2.46011M1.74488 2.46011C3.13828 0.936264 5.14562 0.410461 6.51666 0.226286L1.74488 2.46011ZM8.41212 2.62696V2.62769L9.85137 5.44164L9.85143 5.44174C10.3124 6.3443 10.0744 7.47996 9.2831 8.23327C8.53356 8.94732 7.68012 9.85284 7.14513 10.7321C6.91819 11.1083 6.83885 11.5517 6.92125 11.9802L6.92139 11.9809C7.39144 14.4737 9.06103 16.784 10.3891 18.3059C10.9456 18.9436 11.8311 19.1608 12.622 18.9192C12.622 18.9192 12.622 18.9192 12.622 18.9192L15.5016 18.0392L15.5017 18.0392C15.948 17.9029 16.4271 17.9099 16.8691 18.0594C17.3111 18.2089 17.6934 18.4932 17.9593 18.8715L20.0435 21.836C20.3882 22.3262 20.4775 22.8658 20.2959 23.3056L20.111 23.2292L20.2959 23.3056C19.9627 24.1122 19.3698 25.1325 18.3906 25.7796L18.3905 25.7797C17.4515 26.399 16.0567 26.7432 13.9382 26.0327L13.9382 26.0327C11.5618 25.2354 9.1333 23.1511 7.01085 20.2343C4.89866 17.3321 3.14132 13.6754 2.07402 9.85047L2.07401 9.85041C1.11696 6.41705 1.7793 4.48788 2.80001 3.37135L8.41212 2.62696ZM8.41212 2.62696L8.39016 2.58405M8.41212 2.62696L8.39016 2.58405M8.39016 2.58405C8.02789 1.87617 7.36312 1.49719 6.70983 1.58489L6.70977 1.5849M8.39016 2.58405L6.70977 1.5849M6.70977 1.5849C5.46127 1.75288 3.86097 2.21055 2.80002 3.37134L6.70977 1.5849Z" fill="#F9F9F9" stroke="#1D1D35" stroke-width="0.4" />
</svg>
