<svg width="108" height="12" viewBox="0 0 108 12" fill="none" xmlns="http://www.w3.org/2000/svg">
<path d="M96.466 0.677049V2.83705H100.916V11.55H103.462V2.83805H107.953V0.678049H96.466V0.677049ZM90.602 9.38705H87.339C85.882 9.38705 85.282 9.07405 85.282 7.41505V4.71905C85.282 3.01205 85.636 2.71205 87.339 2.71205H90.602C92.079 2.71205 92.645 3.20005 92.645 4.34205H95.193C95.193 1.28705 93.613 0.550049 91.094 0.550049H86.864C83.731 0.550049 82.736 1.44605 82.736 4.62605V7.71005C82.736 10.624 83.672 11.549 86.618 11.549H91.357C94.497 11.549 95.193 10.687 95.206 7.78905H92.645C92.645 9.10405 92.123 9.38505 90.602 9.38505V9.38705ZM69.343 11.55H80.22V9.49705H71.89V7.00405H79.958V5.10905H71.889V2.72805H80.22V0.678049H69.343V11.55ZM55.961 2.83805H60.411V11.55H62.957V2.83805H67.451V0.678049H55.961V2.83805ZM52.157 4.65705C52.157 3.07305 51.637 2.71205 50.119 2.71205H46.837C45.241 2.71205 44.791 3.11805 44.791 4.67005V7.57005C44.791 8.99405 45.241 9.38605 46.788 9.38605H50.165C51.787 9.38605 52.157 9.02905 52.157 7.55305V4.65705ZM54.704 4.42005V7.83505C54.704 10.545 53.832 11.55 50.854 11.55H46.176C43.319 11.55 42.251 10.47 42.251 7.83505V4.42005C42.251 1.44605 43.278 0.550049 46.176 0.550049H50.855C53.489 0.550049 54.704 1.36405 54.704 4.42005ZM32.443 9.38605H32.433L28.906 0.677049H24.522V11.55H27.071V2.88705L30.701 11.55H34.178L37.811 2.87705V11.55H40.357V0.677049H35.97L32.442 9.38705L32.443 9.38605ZM11.133 11.55H22.008V9.49705H13.677V7.00405H21.745V5.10905H13.677V2.72805H22.007V0.678049H11.135V11.55H11.133ZM0.125 0.677049H9.252V2.83705H2.665V11.55H0.125V0.677049Z" fill="#33945D"/>
</svg>
